<?xml version="1.0" standalone="no"?>
<!DOCTYPE svg PUBLIC "-//W3C//DTD SVG 1.1//EN"
"http://www.w3.org/Graphics/SVG/1.1/DTD/svg11.dtd">
<svg height="600" version="1.1" width="800" xmlns="http://www.w3.org/2000/svg"><g><rect fill="#f9f9f9" height="600" width="800" x="0" y="0" /><g transform="translate(40 40)"><g transform="translate(174 0)" /><g transform="translate(0 0)"><g transform="translate(174 0)"><g class="axis bottom"><text dy="1em" fill="#666" font-family="Monaco" text-anchor="middle" transform="" x="273.0" y="506.0">TOTAL</text><g class="tick"><line stroke="#eee" stroke-width="1" x1="136.50" x2="136.50" y1="0" y2="472.0" /><text dy="1em" fill="#9c9c9c" font-family="Monaco" text-anchor="middle" x="136.50" y="476.0">20000</text></g><g class="tick"><line stroke="#eee" stroke-width="1" x1="273.0" x2="273.0" y1="0" y2="472.0" /><text dy="1em" fill="#9c9c9c" font-family="Monaco" text-anchor="middle" x="273.0" y="476.0">40000</text></g><g class="tick"><line stroke="#eee" stroke-width="1" x1="409.50" x2="409.50" y1="0" y2="472.0" /><text dy="1em" fill="#9c9c9c" font-family="Monaco" text-anchor="middle" x="409.50" y="476.0">60000</text></g><g class="tick"><line stroke="#eee" stroke-width="1" x1="546" x2="546" y1="0" y2="472.0" /><text dy="1em" fill="#9c9c9c" font-family="Monaco" text-anchor="middle" x="546" y="476.0">80000</text></g><g class="tick"><line stroke="#a8a8a8" stroke-width="1" x1="0" x2="0" y1="0" y2="472.0" /><text dy="1em" fill="#9c9c9c" font-family="Monaco" text-anchor="middle" x="0" y="476.0">0</text></g></g><g class="axis left"><text dy="" fill="#666" font-family="Monaco" text-anchor="middle" transform="rotate(270 -152 234)" x="-152" y="234.0">State Name</text><g class="tick"><line stroke="#eee" stroke-width="1" x1="-4" x2="546.0" y1="444.6" y2="444.6" /><text dy="0.32em" fill="#9c9c9c" font-family="Monaco" text-anchor="end" x="-8" y="444.6">FLORIDA</text></g><g class="tick"><line stroke="#eee" stroke-width="1" x1="-4" x2="546.0" y1="397.8" y2="397.8" /><text dy="0.32em" fill="#9c9c9c" font-family="Monaco" text-anchor="end" x="-8" y="397.8">DIST. OF COLUMBIA</text></g><g class="tick"><line stroke="#eee" stroke-width="1" x1="-4" x2="546.0" y1="351.0" y2="351.0" /><text dy="0.32em" fill="#9c9c9c" font-family="Monaco" text-anchor="end" x="-8" y="351.0">DELAWARE</text></g><g class="tick"><line stroke="#eee" stroke-width="1" x1="-4" x2="546.0" y1="304.2" y2="304.2" /><text dy="0.32em" fill="#9c9c9c" font-family="Monaco" text-anchor="end" x="-8" y="304.2">CONNECTICUT</text></g><g class="tick"><line stroke="#eee" stroke-width="1" x1="-4" x2="546.0" y1="257.4" y2="257.4" /><text dy="0.32em" fill="#9c9c9c" font-family="Monaco" text-anchor="end" x="-8" y="257.4">COLORADO</text></g><g class="tick"><line stroke="#eee" stroke-width="1" x1="-4" x2="546.0" y1="210.6" y2="210.6" /><text dy="0.32em" fill="#9c9c9c" font-family="Monaco" text-anchor="end" x="-8" y="210.6">CALIFORNIA</text></g><g class="tick"><line stroke="#eee" stroke-width="1" x1="-4" x2="546.0" y1="163.8" y2="163.8" /><text dy="0.32em" fill="#9c9c9c" font-family="Monaco" text-anchor="end" x="-8" y="163.8">ARKANSAS</text></g><g class="tick"><line stroke="#eee" stroke-width="1" x1="-4" x2="546.0" y1="117.0" y2="117.0" /><text dy="0.32em" fill="#9c9c9c" font-family="Monaco" text-anchor="end" x="-8" y="117.0">ARIZONA</text></g><g class="tick"><line stroke="#eee" stroke-width="1" x1="-4" x2="546.0" y1="70.2" y2="70.2" /><text dy="0.32em" fill="#9c9c9c" font-family="Monaco" text-anchor="end" x="-8" y="70.2">ALASKA</text></g><g class="tick"><line stroke="#eee" stroke-width="1" x1="-4" x2="546.0" y1="23.4" y2="23.4" /><text dy="0.32em" fill="#9c9c9c" font-family="Monaco" text-anchor="end" x="-8" y="23.4">ALABAMA</text></g></g><g><g class="series bars"><rect fill="#e41a1c" height="42.12" width="406.2171750" x="0" y="423.54" /><rect fill="#e41a1c" height="42.12" width="14.9126250" x="0" y="376.74" /><rect fill="#e41a1c" height="42.12" width="12.9948" x="0" y="329.94" /><rect fill="#e41a1c" height="42.12" width="29.688750" x="0" y="283.14" /><rect fill="#e41a1c" height="42.12" width="146.6351250" x="0" y="236.34" /><rect fill="#e41a1c" height="42.12" width="523.0611750" x="0" y="189.54" /><rect fill="#e41a1c" height="42.12" width="54.13590" x="0" y="142.74" /><rect fill="#e41a1c" height="42.12" width="319.0209750" x="0" y="95.94" /><rect fill="#e41a1c" height="42.12" width="18.4616250" x="0" y="49.14" /><rect fill="#e41a1c" height="42.12" width="133.647150" x="0" y="2.34" /></g></g></g></g></g></g></svg>