<?xml version="1.0" standalone="no"?>
<!DOCTYPE svg PUBLIC "-//W3C//DTD SVG 1.1//EN"
"http://www.w3.org/Graphics/SVG/1.1/DTD/svg11.dtd">
<svg height="600" version="1.1" width="800" xmlns="http://www.w3.org/2000/svg"><g><rect fill="#f9f9f9" height="600" width="800" x="0" y="0" /><g transform="translate(40 40)"><g transform="translate(78 0)" /><g transform="translate(0 0)"><g transform="translate(78 0)"><g class="axis bottom"><text dy="1em" fill="#666" font-family="Monaco" text-anchor="middle" transform="" x="321.0" y="506.0">State Name</text><g class="tick"><line stroke="#eee" stroke-width="1" x1="32.1" x2="32.1" y1="0" y2="472.0" /><text dy="1em" fill="#9c9c9c" font-family="Monaco" text-anchor="middle" x="32.1" y="476.0">ALABAMA</text></g><g class="tick"><line stroke="#eee" stroke-width="1" x1="96.3" x2="96.3" y1="0" y2="472.0" /><text dy="1em" fill="#9c9c9c" font-family="Monaco" text-anchor="middle" x="96.3" y="476.0">ALASKA</text></g><g class="tick"><line stroke="#eee" stroke-width="1" x1="160.5" x2="160.5" y1="0" y2="472.0" /><text dy="1em" fill="#9c9c9c" font-family="Monaco" text-anchor="middle" x="160.5" y="476.0">ARIZONA</text></g><g class="tick"><line stroke="#eee" stroke-width="1" x1="224.7" x2="224.7" y1="0" y2="472.0" /><text dy="1em" fill="#9c9c9c" font-family="Monaco" text-anchor="middle" x="224.7" y="476.0">ARKANSAS</text></g><g class="tick"><line stroke="#eee" stroke-width="1" x1="288.9" x2="288.9" y1="0" y2="472.0" /><text dy="1em" fill="#9c9c9c" font-family="Monaco" text-anchor="middle" x="288.9" y="476.0">CALIFORNIA</text></g><g class="tick"><line stroke="#eee" stroke-width="1" x1="353.1" x2="353.1" y1="0" y2="472.0" /><text dy="1em" fill="#9c9c9c" font-family="Monaco" text-anchor="middle" x="353.1" y="476.0">COLORADO</text></g><g class="tick"><line stroke="#eee" stroke-width="1" x1="417.3" x2="417.3" y1="0" y2="472.0" /><text dy="1em" fill="#9c9c9c" font-family="Monaco" text-anchor="middle" x="417.3" y="476.0">CONNECTICUT</text></g><g class="tick"><line stroke="#eee" stroke-width="1" x1="481.5" x2="481.5" y1="0" y2="472.0" /><text dy="1em" fill="#9c9c9c" font-family="Monaco" text-anchor="middle" x="481.5" y="476.0">DELAWARE</text></g><g class="tick"><line stroke="#eee" stroke-width="1" x1="545.7" x2="545.7" y1="0" y2="472.0" /><text dy="1em" fill="#9c9c9c" font-family="Monaco" text-anchor="middle" x="545.7" y="476.0">DIST. OF COLUMBIA</text></g><g class="tick"><line stroke="#eee" stroke-width="1" x1="609.9" x2="609.9" y1="0" y2="472.0" /><text dy="1em" fill="#9c9c9c" font-family="Monaco" text-anchor="middle" x="609.9" y="476.0">FLORIDA</text></g></g><g class="axis left"><text dy="" fill="#666" font-family="Monaco" text-anchor="middle" transform="rotate(270 -56 234)" x="-56" y="234.0">TOTAL</text><g class="tick"><line stroke="#eee" stroke-width="1" x1="-4" x2="642.0" y1="351.00" y2="351.00" /><text dy="0.32em" fill="#9c9c9c" font-family="Monaco" text-anchor="end" x="-8" y="351.00">20000</text></g><g class="tick"><line stroke="#eee" stroke-width="1" x1="-4" x2="642.0" y1="234.0" y2="234.0" /><text dy="0.32em" fill="#9c9c9c" font-family="Monaco" text-anchor="end" x="-8" y="234.0">40000</text></g><g class="tick"><line stroke="#eee" stroke-width="1" x1="-4" x2="642.0" y1="117.00" y2="117.00" /><text dy="0.32em" fill="#9c9c9c" font-family="Monaco" text-anchor="end" x="-8" y="117.00">60000</text></g><g class="tick"><line stroke="#eee" stroke-width="1" x1="-4" x2="642.0" y1="0" y2="0" /><text dy="0.32em" fill="#9c9c9c" font-family="Monaco" text-anchor="end" x="-8" y="0">80000</text></g><g class="tick"><line stroke="#a8a8a8" stroke-width="1" x1="-4" x2="642.0" y1="468" y2="468" /><text dy="0.32em" fill="#9c9c9c" font-family="Monaco" text-anchor="end" x="-8" y="468">0</text></g></g><g><g class="series columns"><rect fill="#e41a1c" height="114.554700" width="57.78" x="3.21" y="353.445300" /><rect fill="#e41a1c" height="15.8242500" width="57.78" x="67.41" y="452.1757500" /><rect fill="#e41a1c" height="273.4465500" width="57.78" x="131.61" y="194.5534500" /><rect fill="#e41a1c" height="46.40220" width="57.78" x="195.81" y="421.59780" /><rect fill="#e41a1c" height="448.3381500" width="57.78" x="260.01" y="19.6618500" /><rect fill="#e41a1c" height="125.6872500" width="57.78" x="324.21" y="342.3127500" /><rect fill="#e41a1c" height="25.447500" width="57.78" x="388.41" y="442.552500" /><rect fill="#e41a1c" height="11.1384" width="57.78" x="452.61" y="456.8616" /><rect fill="#e41a1c" height="12.7822500" width="57.78" x="516.81" y="455.2177500" /><rect fill="#e41a1c" height="348.1861500" width="57.78" x="581.01" y="119.8138500" /></g></g></g></g></g></g></svg>