<?xml version="1.0" standalone="no"?>
<!DOCTYPE svg PUBLIC "-//W3C//DTD SVG 1.1//EN"
"http://www.w3.org/Graphics/SVG/1.1/DTD/svg11.dtd">
<svg height="1200" version="1.1" width="1600" xmlns="http://www.w3.org/2000/svg"><g><rect fill="#f9f9f9" height="1200" width="1600" x="0" y="0" /><g><g transform="translate(0 0)"><g><rect fill="#f9f9f9" height="600.0" width="800.0" x="0" y="0" /><g transform="translate(40 40)"><g transform="translate(54 0)"><text fill="#333" font-family="Monaco" font-size="16" x="0" y="0">Child Sex Abuse</text></g><g transform="translate(0 20)"><g transform="translate(54 0)"><g class="axis bottom"><text dy="1em" fill="#666" font-family="Monaco" text-anchor="middle" transform="" x="333.0" y="486.0">exonerated</text><g class="tick"><line stroke="#eee" stroke-width="1" x1="0" x2="0" y1="0" y2="452.0" /><text dy="1em" fill="#9c9c9c" font-family="Monaco" text-anchor="middle" x="0" y="456.0">1980</text></g><g class="tick"><line stroke="#eee" stroke-width="1" x1="166.50" x2="166.50" y1="0" y2="452.0" /><text dy="1em" fill="#9c9c9c" font-family="Monaco" text-anchor="middle" x="166.50" y="456.0">1990</text></g><g class="tick"><line stroke="#eee" stroke-width="1" x1="333.0" x2="333.0" y1="0" y2="452.0" /><text dy="1em" fill="#9c9c9c" font-family="Monaco" text-anchor="middle" x="333.0" y="456.0">2000</text></g><g class="tick"><line stroke="#eee" stroke-width="1" x1="499.50" x2="499.50" y1="0" y2="452.0" /><text dy="1em" fill="#9c9c9c" font-family="Monaco" text-anchor="middle" x="499.50" y="456.0">2010</text></g><g class="tick"><line stroke="#eee" stroke-width="1" x1="666" x2="666" y1="0" y2="452.0" /><text dy="1em" fill="#9c9c9c" font-family="Monaco" text-anchor="middle" x="666" y="456.0">2020</text></g></g><g class="axis left"><text dy="" fill="#666" font-family="Monaco" text-anchor="middle" transform="rotate(270 -32 224)" x="-32" y="224.0">count</text><g class="tick"><line stroke="#eee" stroke-width="1" x1="-4" x2="666.0" y1="358.4" y2="358.4" /><text dy="0.32em" fill="#9c9c9c" font-family="Monaco" text-anchor="end" x="-8" y="358.4">10</text></g><g class="tick"><line stroke="#eee" stroke-width="1" x1="-4" x2="666.0" y1="268.8" y2="268.8" /><text dy="0.32em" fill="#9c9c9c" font-family="Monaco" text-anchor="end" x="-8" y="268.8">20</text></g><g class="tick"><line stroke="#eee" stroke-width="1" x1="-4" x2="666.0" y1="179.2" y2="179.2" /><text dy="0.32em" fill="#9c9c9c" font-family="Monaco" text-anchor="end" x="-8" y="179.2">30</text></g><g class="tick"><line stroke="#eee" stroke-width="1" x1="-4" x2="666.0" y1="89.6" y2="89.6" /><text dy="0.32em" fill="#9c9c9c" font-family="Monaco" text-anchor="end" x="-8" y="89.6">40</text></g><g class="tick"><line stroke="#eee" stroke-width="1" x1="-4" x2="666.0" y1="0" y2="0" /><text dy="0.32em" fill="#9c9c9c" font-family="Monaco" text-anchor="end" x="-8" y="0">50</text></g><g class="tick"><line stroke="#a8a8a8" stroke-width="1" x1="-4" x2="666.0" y1="448" y2="448" /><text dy="0.32em" fill="#9c9c9c" font-family="Monaco" text-anchor="end" x="-8" y="448">0</text></g></g><g><g class="series lines"><path d="M 149.850 430.08 L 166.50 412.16 L 183.150 367.36 L 199.8 412.16 L 216.450 439.04 L 233.10 421.12 L 249.750 421.12 L 266.4 403.2 L 283.050 340.48 L 299.70 385.28 L 316.350 421.12 L 333.0 331.52 L 349.650 349.44 L 366.30 403.2 L 382.950 394.24 L 399.6 412.16 L 416.250 358.4 L 432.90 412.16 L 449.550 367.36 L 466.2 349.44 L 482.850 322.56 L 499.50 376.32 L 516.150 349.44 L 532.8 376.32 L 549.450 394.24 L 566.10 385.28 L 582.750 421.12" fill="none" stroke="#e41a1c" stroke-width="2" /></g></g></g></g></g></g></g><g transform="translate(800 0)"><g><rect fill="#f9f9f9" height="600.0" width="800.0" x="0" y="0" /><g transform="translate(40 40)"><g transform="translate(54 0)"><text fill="#333" font-family="Monaco" font-size="16" x="0" y="0">Sexual Assault</text></g><g transform="translate(0 20)"><g transform="translate(54 0)"><g class="axis bottom"><text dy="1em" fill="#666" font-family="Monaco" text-anchor="middle" transform="" x="333.0" y="486.0">exonerated</text><g class="tick"><line stroke="#eee" stroke-width="1" x1="0" x2="0" y1="0" y2="452.0" /><text dy="1em" fill="#9c9c9c" font-family="Monaco" text-anchor="middle" x="0" y="456.0">1980</text></g><g class="tick"><line stroke="#eee" stroke-width="1" x1="166.50" x2="166.50" y1="0" y2="452.0" /><text dy="1em" fill="#9c9c9c" font-family="Monaco" text-anchor="middle" x="166.50" y="456.0">1990</text></g><g class="tick"><line stroke="#eee" stroke-width="1" x1="333.0" x2="333.0" y1="0" y2="452.0" /><text dy="1em" fill="#9c9c9c" font-family="Monaco" text-anchor="middle" x="333.0" y="456.0">2000</text></g><g class="tick"><line stroke="#eee" stroke-width="1" x1="499.50" x2="499.50" y1="0" y2="452.0" /><text dy="1em" fill="#9c9c9c" font-family="Monaco" text-anchor="middle" x="499.50" y="456.0">2010</text></g><g class="tick"><line stroke="#eee" stroke-width="1" x1="666" x2="666" y1="0" y2="452.0" /><text dy="1em" fill="#9c9c9c" font-family="Monaco" text-anchor="middle" x="666" y="456.0">2020</text></g></g><g class="axis left"><text dy="" fill="#666" font-family="Monaco" text-anchor="middle" transform="rotate(270 -32 224)" x="-32" y="224.0">count</text><g class="tick"><line stroke="#eee" stroke-width="1" x1="-4" x2="666.0" y1="358.4" y2="358.4" /><text dy="0.32em" fill="#9c9c9c" font-family="Monaco" text-anchor="end" x="-8" y="358.4">10</text></g><g class="tick"><line stroke="#eee" stroke-width="1" x1="-4" x2="666.0" y1="268.8" y2="268.8" /><text dy="0.32em" fill="#9c9c9c" font-family="Monaco" text-anchor="end" x="-8" y="268.8">20</text></g><g class="tick"><line stroke="#eee" stroke-width="1" x1="-4" x2="666.0" y1="179.2" y2="179.2" /><text dy="0.32em" fill="#9c9c9c" font-family="Monaco" text-anchor="end" x="-8" y="179.2">30</text></g><g class="tick"><line stroke="#eee" stroke-width="1" x1="-4" x2="666.0" y1="89.6" y2="89.6" /><text dy="0.32em" fill="#9c9c9c" font-family="Monaco" text-anchor="end" x="-8" y="89.6">40</text></g><g class="tick"><line stroke="#eee" stroke-width="1" x1="-4" x2="666.0" y1="0" y2="0" /><text dy="0.32em" fill="#9c9c9c" font-family="Monaco" text-anchor="end" x="-8" y="0">50</text></g><g class="tick"><line stroke="#a8a8a8" stroke-width="1" x1="-4" x2="666.0" y1="448" y2="448" /><text dy="0.32em" fill="#9c9c9c" font-family="Monaco" text-anchor="end" x="-8" y="448">0</text></g></g><g><g class="series lines"><path d="M 149.850 439.04 L 166.50 430.08 L 183.150 403.2 L 199.8 385.28 L 216.450 430.08 L 233.10 376.32 L 249.750 385.28 L 266.4 349.44 L 283.050 349.44 L 299.70 421.12 L 316.350 358.4 L 333.0 322.56 L 349.650 340.48 L 366.30 259.84 L 382.950 286.72 L 399.6 358.4 L 416.250 358.4 L 432.90 313.6 L 449.550 322.56 L 466.2 349.44 L 482.850 331.52 L 499.50 322.56 L 516.150 367.36 L 532.8 295.68 L 549.450 331.52 L 566.10 340.48 L 582.750 394.24" fill="none" stroke="#e41a1c" stroke-width="2" /></g></g></g></g></g></g></g><g transform="translate(0 600)"><g><rect fill="#f9f9f9" height="600.0" width="800.0" x="0" y="0" /><g transform="translate(40 40)"><g transform="translate(54 0)"><text fill="#333" font-family="Monaco" font-size="16" x="0" y="0">Murder</text></g><g transform="translate(0 20)"><g transform="translate(54 0)"><g class="axis bottom"><text dy="1em" fill="#666" font-family="Monaco" text-anchor="middle" transform="" x="333.0" y="486.0">exonerated</text><g class="tick"><line stroke="#eee" stroke-width="1" x1="0" x2="0" y1="0" y2="452.0" /><text dy="1em" fill="#9c9c9c" font-family="Monaco" text-anchor="middle" x="0" y="456.0">1980</text></g><g class="tick"><line stroke="#eee" stroke-width="1" x1="166.50" x2="166.50" y1="0" y2="452.0" /><text dy="1em" fill="#9c9c9c" font-family="Monaco" text-anchor="middle" x="166.50" y="456.0">1990</text></g><g class="tick"><line stroke="#eee" stroke-width="1" x1="333.0" x2="333.0" y1="0" y2="452.0" /><text dy="1em" fill="#9c9c9c" font-family="Monaco" text-anchor="middle" x="333.0" y="456.0">2000</text></g><g class="tick"><line stroke="#eee" stroke-width="1" x1="499.50" x2="499.50" y1="0" y2="452.0" /><text dy="1em" fill="#9c9c9c" font-family="Monaco" text-anchor="middle" x="499.50" y="456.0">2010</text></g><g class="tick"><line stroke="#eee" stroke-width="1" x1="666" x2="666" y1="0" y2="452.0" /><text dy="1em" fill="#9c9c9c" font-family="Monaco" text-anchor="middle" x="666" y="456.0">2020</text></g></g><g class="axis left"><text dy="" fill="#666" font-family="Monaco" text-anchor="middle" transform="rotate(270 -32 224)" x="-32" y="224.0">count</text><g class="tick"><line stroke="#eee" stroke-width="1" x1="-4" x2="666.0" y1="358.4" y2="358.4" /><text dy="0.32em" fill="#9c9c9c" font-family="Monaco" text-anchor="end" x="-8" y="358.4">10</text></g><g class="tick"><line stroke="#eee" stroke-width="1" x1="-4" x2="666.0" y1="268.8" y2="268.8" /><text dy="0.32em" fill="#9c9c9c" font-family="Monaco" text-anchor="end" x="-8" y="268.8">20</text></g><g class="tick"><line stroke="#eee" stroke-width="1" x1="-4" x2="666.0" y1="179.2" y2="179.2" /><text dy="0.32em" fill="#9c9c9c" font-family="Monaco" text-anchor="end" x="-8" y="179.2">30</text></g><g class="tick"><line stroke="#eee" stroke-width="1" x1="-4" x2="666.0" y1="89.6" y2="89.6" /><text dy="0.32em" fill="#9c9c9c" font-family="Monaco" text-anchor="end" x="-8" y="89.6">40</text></g><g class="tick"><line stroke="#eee" stroke-width="1" x1="-4" x2="666.0" y1="0" y2="0" /><text dy="0.32em" fill="#9c9c9c" font-family="Monaco" text-anchor="end" x="-8" y="0">50</text></g><g class="tick"><line stroke="#a8a8a8" stroke-width="1" x1="-4" x2="666.0" y1="448" y2="448" /><text dy="0.32em" fill="#9c9c9c" font-family="Monaco" text-anchor="end" x="-8" y="448">0</text></g></g><g><g class="series lines"><path d="M 149.850 331.52 L 166.50 340.48 L 183.150 295.68 L 199.8 340.48 L 216.450 259.84 L 233.10 331.52 L 249.750 277.76 L 266.4 241.92 L 283.050 331.52 L 299.70 349.44 L 316.350 268.8 L 333.0 179.2 L 349.650 107.52 L 366.30 250.88 L 382.950 125.44 L 399.6 224.0 L 416.250 224.0 L 432.90 295.68 L 449.550 241.92 L 466.2 170.24 L 482.850 53.76 L 499.50 197.12 L 516.150 143.36 L 532.8 44.8 L 549.450 71.68 L 566.10 35.84 L 582.750 197.12" fill="none" stroke="#e41a1c" stroke-width="2" /></g></g></g></g></g></g></g><g transform="translate(800 600)"><g><rect fill="#f9f9f9" height="600.0" width="800.0" x="0" y="0" /><g transform="translate(40 40)"><g transform="translate(54 0)"><text fill="#333" font-family="Monaco" font-size="16" x="0" y="0">Drug Possession or Sale</text></g><g transform="translate(0 20)"><g transform="translate(54 0)"><g class="axis bottom"><text dy="1em" fill="#666" font-family="Monaco" text-anchor="middle" transform="" x="333.0" y="486.0">exonerated</text><g class="tick"><line stroke="#eee" stroke-width="1" x1="0" x2="0" y1="0" y2="452.0" /><text dy="1em" fill="#9c9c9c" font-family="Monaco" text-anchor="middle" x="0" y="456.0">1980</text></g><g class="tick"><line stroke="#eee" stroke-width="1" x1="166.50" x2="166.50" y1="0" y2="452.0" /><text dy="1em" fill="#9c9c9c" font-family="Monaco" text-anchor="middle" x="166.50" y="456.0">1990</text></g><g class="tick"><line stroke="#eee" stroke-width="1" x1="333.0" x2="333.0" y1="0" y2="452.0" /><text dy="1em" fill="#9c9c9c" font-family="Monaco" text-anchor="middle" x="333.0" y="456.0">2000</text></g><g class="tick"><line stroke="#eee" stroke-width="1" x1="499.50" x2="499.50" y1="0" y2="452.0" /><text dy="1em" fill="#9c9c9c" font-family="Monaco" text-anchor="middle" x="499.50" y="456.0">2010</text></g><g class="tick"><line stroke="#eee" stroke-width="1" x1="666" x2="666" y1="0" y2="452.0" /><text dy="1em" fill="#9c9c9c" font-family="Monaco" text-anchor="middle" x="666" y="456.0">2020</text></g></g><g class="axis left"><text dy="" fill="#666" font-family="Monaco" text-anchor="middle" transform="rotate(270 -32 224)" x="-32" y="224.0">count</text><g class="tick"><line stroke="#eee" stroke-width="1" x1="-4" x2="666.0" y1="358.4" y2="358.4" /><text dy="0.32em" fill="#9c9c9c" font-family="Monaco" text-anchor="end" x="-8" y="358.4">10</text></g><g class="tick"><line stroke="#eee" stroke-width="1" x1="-4" x2="666.0" y1="268.8" y2="268.8" /><text dy="0.32em" fill="#9c9c9c" font-family="Monaco" text-anchor="end" x="-8" y="268.8">20</text></g><g class="tick"><line stroke="#eee" stroke-width="1" x1="-4" x2="666.0" y1="179.2" y2="179.2" /><text dy="0.32em" fill="#9c9c9c" font-family="Monaco" text-anchor="end" x="-8" y="179.2">30</text></g><g class="tick"><line stroke="#eee" stroke-width="1" x1="-4" x2="666.0" y1="89.6" y2="89.6" /><text dy="0.32em" fill="#9c9c9c" font-family="Monaco" text-anchor="end" x="-8" y="89.6">40</text></g><g class="tick"><line stroke="#eee" stroke-width="1" x1="-4" x2="666.0" y1="0" y2="0" /><text dy="0.32em" fill="#9c9c9c" font-family="Monaco" text-anchor="end" x="-8" y="0">50</text></g><g class="tick"><line stroke="#a8a8a8" stroke-width="1" x1="-4" x2="666.0" y1="448" y2="448" /><text dy="0.32em" fill="#9c9c9c" font-family="Monaco" text-anchor="end" x="-8" y="448">0</text></g></g><g><g class="series lines"><path d="M 149.850 439.04 L 199.8 439.04 L 233.10 421.12 L 249.750 439.04 L 283.050 412.16 L 299.70 439.04 L 316.350 439.04 L 333.0 385.28 L 349.650 412.16 L 366.30 439.04 L 382.950 421.12 L 399.6 439.04 L 416.250 421.12 L 432.90 376.32 L 449.550 421.12 L 466.2 439.04 L 482.850 421.12 L 499.50 403.2 L 516.150 421.12 L 532.8 403.2 L 549.450 349.44 L 566.10 89.6 L 582.750 224.0" fill="none" stroke="#e41a1c" stroke-width="2" /></g></g></g></g></g></g></g></g></g></svg>