<?xml version="1.0" standalone="no"?>
<!DOCTYPE svg PUBLIC "-//W3C//DTD SVG 1.1//EN"
"http://www.w3.org/Graphics/SVG/1.1/DTD/svg11.dtd">
<svg height="600" version="1.1" width="800" xmlns="http://www.w3.org/2000/svg"><g><rect fill="#f9f9f9" height="600" width="800" x="0" y="0" /><g transform="translate(40 40)"><g transform="translate(62 0)" /><g transform="translate(0 0)"><g transform="translate(62 0)"><g class="axis bottom"><text dy="1em" fill="#666" font-family="Monaco" text-anchor="middle" transform="" x="329.0" y="506.0">exonerated</text><g class="tick"><line stroke="#eee" stroke-width="1" x1="0" x2="0" y1="0" y2="472.0" /><text dy="1em" fill="#9c9c9c" font-family="Monaco" text-anchor="middle" x="0" y="476.0">1980</text></g><g class="tick"><line stroke="#eee" stroke-width="1" x1="164.50" x2="164.50" y1="0" y2="472.0" /><text dy="1em" fill="#9c9c9c" font-family="Monaco" text-anchor="middle" x="164.50" y="476.0">1990</text></g><g class="tick"><line stroke="#eee" stroke-width="1" x1="329.0" x2="329.0" y1="0" y2="472.0" /><text dy="1em" fill="#9c9c9c" font-family="Monaco" text-anchor="middle" x="329.0" y="476.0">2000</text></g><g class="tick"><line stroke="#eee" stroke-width="1" x1="493.50" x2="493.50" y1="0" y2="472.0" /><text dy="1em" fill="#9c9c9c" font-family="Monaco" text-anchor="middle" x="493.50" y="476.0">2010</text></g><g class="tick"><line stroke="#eee" stroke-width="1" x1="658" x2="658" y1="0" y2="472.0" /><text dy="1em" fill="#9c9c9c" font-family="Monaco" text-anchor="middle" x="658" y="476.0">2020</text></g></g><g class="axis left"><text dy="" fill="#666" font-family="Monaco" text-anchor="middle" transform="rotate(270 -40 234)" x="-40" y="234.0">count</text><g class="tick"><line stroke="#eee" stroke-width="1" x1="-4" x2="658.0" y1="312.0000000000000000000000000" y2="312.0000000000000000000000000" /><text dy="0.32em" fill="#9c9c9c" font-family="Monaco" text-anchor="end" x="-8" y="312.0000000000000000000000000">50</text></g><g class="tick"><line stroke="#eee" stroke-width="1" x1="-4" x2="658.0" y1="156.0000000000000000000000000" y2="156.0000000000000000000000000" /><text dy="0.32em" fill="#9c9c9c" font-family="Monaco" text-anchor="end" x="-8" y="156.0000000000000000000000000">100</text></g><g class="tick"><line stroke="#eee" stroke-width="1" x1="-4" x2="658.0" y1="0" y2="0" /><text dy="0.32em" fill="#9c9c9c" font-family="Monaco" text-anchor="end" x="-8" y="0">150</text></g><g class="tick"><line stroke="#a8a8a8" stroke-width="1" x1="-4" x2="658.0" y1="468" y2="468" /><text dy="0.32em" fill="#9c9c9c" font-family="Monaco" text-anchor="end" x="-8" y="468">0</text></g></g><g><g class="series lines"><path d="M 148.050 399.3600000000000000000000000 L 164.50 383.76 L 180.950 349.4400000000000000000000000 L 197.4 358.8000000000000000000000000 L 213.850 361.9200000000000000000000000 L 230.30 371.2800000000000000000000000 L 246.750 352.5600000000000000000000000 L 263.2 324.4800000000000000000000000 L 279.650 324.4800000000000000000000000 L 296.10 365.04 L 312.550 308.88 L 329.0 237.1200000000000000000000000 L 345.450 199.6800000000000000000000000 L 361.90 287.0400000000000000000000000 L 378.350 227.7600000000000000000000000 L 394.8 290.16 L 411.250 280.8 L 427.70 271.44 L 444.150 246.4800000000000000000000000 L 460.6 268.3200000000000000000000000 L 477.050 190.3200000000000000000000000 L 493.50 243.36 L 509.950 246.4800000000000000000000000 L 526.4 171.6000000000000000000000000 L 542.850 180.9600000000000000000000000 L 559.30 43.6800000000000000000000000 L 575.750 199.6800000000000000000000000" fill="none" stroke="#e41a1c" stroke-width="2" /></g></g></g></g></g></g></svg>